<?xml version="1.0" encoding="UTF-8" standalone="no"?><!DOCTYPE svg PUBLIC "-//W3C//DTD SVG 1.1//EN" "http://www.w3.org/Graphics/SVG/1.1/DTD/svg11.dtd"><!-- Generated by graphviz version 2.40.1 (20161225.0304)
 --><!-- Title: %0 Pages: 1 --><svg xmlns="http://www.w3.org/2000/svg" xmlns:xlink="http://www.w3.org/1999/xlink" width="1459pt" height="404pt" viewBox="0.00 0.00 1459.48 404.00">
<g id="graph0" class="graph" transform="scale(1 1) rotate(0) translate(4 400)">
<title>%0</title>
<polygon fill="#ffffff" stroke="transparent" points="-4,4 -4,-400 1455.4782,-400 1455.4782,4 -4,4"/>
<!-- [root] aws_db_instance.db_instance_service1_c_c (expand) -->
<g id="node1" class="node">
<title>[root] aws_db_instance.db_instance_service1_c_c (expand)</title>
<polygon fill="none" stroke="#000000" points="1429.1107,-252 1166.9631,-252 1166.9631,-216 1429.1107,-216 1429.1107,-252"/>
<text text-anchor="middle" x="1298.0369" y="-229.8" font-family="Times,serif" font-size="14.00" fill="#000000">aws_db_instance.db_instance_service1_c_c</text>
</g>
<!-- [root] aws_subnet.aws_subnet_5 (expand) -->
<g id="node9" class="node">
<title>[root] aws_subnet.aws_subnet_5 (expand)</title>
<polygon fill="none" stroke="#000000" points="1072.1682,-180 907.9056,-180 907.9056,-144 1072.1682,-144 1072.1682,-180"/>
<text text-anchor="middle" x="990.0369" y="-157.8" font-family="Times,serif" font-size="14.00" fill="#000000">aws_subnet.aws_subnet_5</text>
</g>
<!-- [root] aws_db_instance.db_instance_service1_c_c (expand)&#45;&gt;[root] aws_subnet.aws_subnet_5 (expand) -->
<g id="edge1" class="edge">
<title>[root] aws_db_instance.db_instance_service1_c_c (expand)-&gt;[root] aws_subnet.aws_subnet_5 (expand)</title>
<path fill="none" stroke="#000000" d="M1220.7131,-215.9243C1176.9686,-205.6983 1122.1423,-192.8818 1076.9173,-182.3097"/>
<polygon fill="#000000" stroke="#000000" points="1077.6596,-178.8889 1067.1254,-180.0207 1076.0661,-185.7052 1077.6596,-178.8889"/>
</g>
<!-- [root] aws_db_instance.db_instance_service2_c_c (expand) -->
<g id="node2" class="node">
<title>[root] aws_db_instance.db_instance_service2_c_c (expand)</title>
<polygon fill="none" stroke="#000000" points="262.1107,-252 -.0369,-252 -.0369,-216 262.1107,-216 262.1107,-252"/>
<text text-anchor="middle" x="131.0369" y="-229.8" font-family="Times,serif" font-size="14.00" fill="#000000">aws_db_instance.db_instance_service2_c_c</text>
</g>
<!-- [root] aws_subnet.aws_subnet_6 (expand) -->
<g id="node10" class="node">
<title>[root] aws_subnet.aws_subnet_6 (expand)</title>
<polygon fill="none" stroke="#000000" points="555.1682,-180 390.9056,-180 390.9056,-144 555.1682,-144 555.1682,-180"/>
<text text-anchor="middle" x="473.0369" y="-157.8" font-family="Times,serif" font-size="14.00" fill="#000000">aws_subnet.aws_subnet_6</text>
</g>
<!-- [root] aws_db_instance.db_instance_service2_c_c (expand)&#45;&gt;[root] aws_subnet.aws_subnet_6 (expand) -->
<g id="edge2" class="edge">
<title>[root] aws_db_instance.db_instance_service2_c_c (expand)-&gt;[root] aws_subnet.aws_subnet_6 (expand)</title>
<path fill="none" stroke="#000000" d="M216.8965,-215.9243C266.7956,-205.4192 329.6808,-192.1802 380.6533,-181.4492"/>
<polygon fill="#000000" stroke="#000000" points="381.6172,-184.8231 390.6816,-179.338 380.175,-177.9732 381.6172,-184.8231"/>
</g>
<!-- [root] aws_db_instance.db_instance_service3_c_c_1_c (expand) -->
<g id="node3" class="node">
<title>[root] aws_db_instance.db_instance_service3_c_c_1_c (expand)</title>
<polygon fill="none" stroke="#000000" points="707.8254,-252 418.2484,-252 418.2484,-216 707.8254,-216 707.8254,-252"/>
<text text-anchor="middle" x="563.0369" y="-229.8" font-family="Times,serif" font-size="14.00" fill="#000000">aws_db_instance.db_instance_service3_c_c_1_c</text>
</g>
<!-- [root] aws_subnet.aws_subnet_3 (expand) -->
<g id="node8" class="node">
<title>[root] aws_subnet.aws_subnet_3 (expand)</title>
<polygon fill="none" stroke="#000000" points="870.1682,-180 705.9056,-180 705.9056,-144 870.1682,-144 870.1682,-180"/>
<text text-anchor="middle" x="788.0369" y="-157.8" font-family="Times,serif" font-size="14.00" fill="#000000">aws_subnet.aws_subnet_3</text>
</g>
<!-- [root] aws_db_instance.db_instance_service3_c_c_1_c (expand)&#45;&gt;[root] aws_subnet.aws_subnet_3 (expand) -->
<g id="edge3" class="edge">
<title>[root] aws_db_instance.db_instance_service3_c_c_1_c (expand)-&gt;[root] aws_subnet.aws_subnet_3 (expand)</title>
<path fill="none" stroke="#000000" d="M619.5235,-215.9243C650.5498,-205.9959 689.2072,-193.6255 721.6675,-183.2382"/>
<polygon fill="#000000" stroke="#000000" points="723.0696,-186.4645 731.5271,-180.0831 720.9361,-179.7975 723.0696,-186.4645"/>
</g>
<!-- [root] aws_elb.aws_elb_1 (expand) -->
<g id="node4" class="node">
<title>[root] aws_elb.aws_elb_1 (expand)</title>
<polygon fill="none" stroke="#000000" points="850.7791,-252 725.2947,-252 725.2947,-216 850.7791,-216 850.7791,-252"/>
<text text-anchor="middle" x="788.0369" y="-229.8" font-family="Times,serif" font-size="14.00" fill="#000000">aws_elb.aws_elb_1</text>
</g>
<!-- [root] aws_elb.aws_elb_1 (expand)&#45;&gt;[root] aws_subnet.aws_subnet_3 (expand) -->
<g id="edge4" class="edge">
<title>[root] aws_elb.aws_elb_1 (expand)-&gt;[root] aws_subnet.aws_subnet_3 (expand)</title>
<path fill="none" stroke="#000000" d="M788.0369,-215.8314C788.0369,-208.131 788.0369,-198.9743 788.0369,-190.4166"/>
<polygon fill="#000000" stroke="#000000" points="791.537,-190.4132 788.0369,-180.4133 784.537,-190.4133 791.537,-190.4132"/>
</g>
<!-- [root] aws_elb.aws_elb_1 (expand)&#45;&gt;[root] aws_subnet.aws_subnet_5 (expand) -->
<g id="edge5" class="edge">
<title>[root] aws_elb.aws_elb_1 (expand)-&gt;[root] aws_subnet.aws_subnet_5 (expand)</title>
<path fill="none" stroke="#000000" d="M838.7493,-215.9243C866.3639,-206.0815 900.7119,-193.8386 929.697,-183.5073"/>
<polygon fill="#000000" stroke="#000000" points="931.0592,-186.7375 939.3036,-180.0831 928.709,-180.1438 931.0592,-186.7375"/>
</g>
<!-- [root] aws_elb.aws_elb_1 (expand)&#45;&gt;[root] aws_subnet.aws_subnet_6 (expand) -->
<g id="edge6" class="edge">
<title>[root] aws_elb.aws_elb_1 (expand)-&gt;[root] aws_subnet.aws_subnet_6 (expand)</title>
<path fill="none" stroke="#000000" d="M725.3425,-217.9954C722.5374,-217.3141 719.7589,-216.6461 717.0369,-216 666.9925,-204.1216 610.9718,-191.6642 565.242,-181.7116"/>
<polygon fill="#000000" stroke="#000000" points="565.8635,-178.265 555.3484,-179.5624 564.3775,-185.1055 565.8635,-178.265"/>
</g>
<!-- [root] aws_instance.f1_8 (expand) -->
<g id="node5" class="node">
<title>[root] aws_instance.f1_8 (expand)</title>
<polygon fill="none" stroke="#000000" points="399.8331,-252 280.2407,-252 280.2407,-216 399.8331,-216 399.8331,-252"/>
<text text-anchor="middle" x="340.0369" y="-229.8" font-family="Times,serif" font-size="14.00" fill="#000000">aws_instance.f1_8</text>
</g>
<!-- [root] aws_instance.f1_8 (expand)&#45;&gt;[root] aws_subnet.aws_subnet_6 (expand) -->
<g id="edge7" class="edge">
<title>[root] aws_instance.f1_8 (expand)-&gt;[root] aws_subnet.aws_subnet_6 (expand)</title>
<path fill="none" stroke="#000000" d="M373.5984,-215.8314C390.925,-206.4516 412.2427,-194.9112 430.6905,-184.9244"/>
<polygon fill="#000000" stroke="#000000" points="432.3583,-188.0015 439.4861,-180.1628 429.0258,-181.8457 432.3583,-188.0015"/>
</g>
<!-- [root] aws_lambda_function.aws_lambda_function_7 (expand) -->
<g id="node6" class="node">
<title>[root] aws_lambda_function.aws_lambda_function_7 (expand)</title>
<polygon fill="none" stroke="#000000" points="1149.3022,-252 868.7716,-252 868.7716,-216 1149.3022,-216 1149.3022,-252"/>
<text text-anchor="middle" x="1009.0369" y="-229.8" font-family="Times,serif" font-size="14.00" fill="#000000">aws_lambda_function.aws_lambda_function_7</text>
</g>
<!-- [root] aws_lambda_function.aws_lambda_function_7 (expand)&#45;&gt;[root] aws_subnet.aws_subnet_5 (expand) -->
<g id="edge8" class="edge">
<title>[root] aws_lambda_function.aws_lambda_function_7 (expand)-&gt;[root] aws_subnet.aws_subnet_5 (expand)</title>
<path fill="none" stroke="#000000" d="M1004.2424,-215.8314C1002.188,-208.0463 999.7409,-198.7729 997.4613,-190.1347"/>
<polygon fill="#000000" stroke="#000000" points="1000.8317,-189.1892 994.896,-180.4133 994.0634,-190.9753 1000.8317,-189.1892"/>
</g>
<!-- [root] aws_s3_bucket.aws_s3_bucket_4 (expand) -->
<g id="node7" class="node">
<title>[root] aws_s3_bucket.aws_s3_bucket_4 (expand)</title>
<polygon fill="none" stroke="#000000" points="1372.0978,-108 1167.976,-108 1167.976,-72 1372.0978,-72 1372.0978,-108"/>
<text text-anchor="middle" x="1270.0369" y="-85.8" font-family="Times,serif" font-size="14.00" fill="#000000">aws_s3_bucket.aws_s3_bucket_4</text>
</g>
<!-- [root] provider[&quot;registry.terraform.io/hashicorp/aws&quot;] -->
<g id="node12" class="node">
<title>[root] provider["registry.terraform.io/hashicorp/aws"]</title>
<polygon fill="none" stroke="#000000" points="991.0369,-36 716.0464,-18 991.0369,0 1266.0274,-18 991.0369,-36"/>
<text text-anchor="middle" x="991.0369" y="-13.8" font-family="Times,serif" font-size="14.00" fill="#000000">provider["registry.terraform.io/hashicorp/aws"]</text>
</g>
<!-- [root] aws_s3_bucket.aws_s3_bucket_4 (expand)&#45;&gt;[root] provider[&quot;registry.terraform.io/hashicorp/aws&quot;] -->
<g id="edge9" class="edge">
<title>[root] aws_s3_bucket.aws_s3_bucket_4 (expand)-&gt;[root] provider["registry.terraform.io/hashicorp/aws"]</title>
<path fill="none" stroke="#000000" d="M1199.9935,-71.9243C1156.1163,-60.6011 1099.9311,-46.1017 1056.8743,-34.9903"/>
<polygon fill="#000000" stroke="#000000" points="1057.6209,-31.5684 1047.0636,-32.4585 1055.8717,-38.3463 1057.6209,-31.5684"/>
</g>
<!-- [root] aws_vpc.aws_vpc_2 (expand) -->
<g id="node11" class="node">
<title>[root] aws_vpc.aws_vpc_2 (expand)</title>
<polygon fill="none" stroke="#000000" points="963.9985,-108 832.0753,-108 832.0753,-72 963.9985,-72 963.9985,-108"/>
<text text-anchor="middle" x="898.0369" y="-85.8" font-family="Times,serif" font-size="14.00" fill="#000000">aws_vpc.aws_vpc_2</text>
</g>
<!-- [root] aws_subnet.aws_subnet_3 (expand)&#45;&gt;[root] aws_vpc.aws_vpc_2 (expand) -->
<g id="edge10" class="edge">
<title>[root] aws_subnet.aws_subnet_3 (expand)-&gt;[root] aws_vpc.aws_vpc_2 (expand)</title>
<path fill="none" stroke="#000000" d="M815.7945,-143.8314C829.7339,-134.7074 846.7967,-123.539 861.76,-113.7449"/>
<polygon fill="#000000" stroke="#000000" points="863.8379,-116.5679 870.2881,-108.1628 860.0043,-110.711 863.8379,-116.5679"/>
</g>
<!-- [root] aws_subnet.aws_subnet_5 (expand)&#45;&gt;[root] aws_vpc.aws_vpc_2 (expand) -->
<g id="edge11" class="edge">
<title>[root] aws_subnet.aws_subnet_5 (expand)-&gt;[root] aws_vpc.aws_vpc_2 (expand)</title>
<path fill="none" stroke="#000000" d="M966.8214,-143.8314C955.4899,-134.9632 941.6905,-124.1637 929.4342,-114.5718"/>
<polygon fill="#000000" stroke="#000000" points="931.2771,-111.5697 921.245,-108.1628 926.9629,-117.0822 931.2771,-111.5697"/>
</g>
<!-- [root] aws_subnet.aws_subnet_6 (expand)&#45;&gt;[root] aws_vpc.aws_vpc_2 (expand) -->
<g id="edge12" class="edge">
<title>[root] aws_subnet.aws_subnet_6 (expand)-&gt;[root] aws_vpc.aws_vpc_2 (expand)</title>
<path fill="none" stroke="#000000" d="M555.233,-148.075C632.4802,-134.9884 747.1441,-115.563 822.2367,-102.8414"/>
<polygon fill="#000000" stroke="#000000" points="822.83,-106.2909 832.1049,-101.1697 821.6608,-99.3892 822.83,-106.2909"/>
</g>
<!-- [root] aws_vpc.aws_vpc_2 (expand)&#45;&gt;[root] provider[&quot;registry.terraform.io/hashicorp/aws&quot;] -->
<g id="edge13" class="edge">
<title>[root] aws_vpc.aws_vpc_2 (expand)-&gt;[root] provider["registry.terraform.io/hashicorp/aws"]</title>
<path fill="none" stroke="#000000" d="M921.5047,-71.8314C933.5993,-62.4678 948.4749,-50.9512 961.3591,-40.9764"/>
<polygon fill="#000000" stroke="#000000" points="963.7244,-43.5715 969.489,-34.6822 959.4391,-38.0365 963.7244,-43.5715"/>
</g>
<!-- [root] provider[&quot;registry.terraform.io/hashicorp/aws&quot;] (close) -->
<g id="node13" class="node">
<title>[root] provider["registry.terraform.io/hashicorp/aws"] (close)</title>
<ellipse fill="none" stroke="#000000" cx="788.0369" cy="-306" rx="247.2168" ry="18"/>
<text text-anchor="middle" x="788.0369" y="-301.8" font-family="Times,serif" font-size="14.00" fill="#000000">[root] provider["registry.terraform.io/hashicorp/aws"] (close)</text>
</g>
<!-- [root] provider[&quot;registry.terraform.io/hashicorp/aws&quot;] (close)&#45;&gt;[root] aws_db_instance.db_instance_service1_c_c (expand) -->
<g id="edge14" class="edge">
<title>[root] provider["registry.terraform.io/hashicorp/aws"] (close)-&gt;[root] aws_db_instance.db_instance_service1_c_c (expand)</title>
<path fill="none" stroke="#000000" d="M901.5391,-289.9762C977.9599,-279.1873 1079.1901,-264.896 1160.2351,-253.4544"/>
<polygon fill="#000000" stroke="#000000" points="1161.1072,-256.866 1170.5197,-252.0024 1160.1286,-249.9348 1161.1072,-256.866"/>
</g>
<!-- [root] provider[&quot;registry.terraform.io/hashicorp/aws&quot;] (close)&#45;&gt;[root] aws_db_instance.db_instance_service2_c_c (expand) -->
<g id="edge15" class="edge">
<title>[root] provider["registry.terraform.io/hashicorp/aws"] (close)-&gt;[root] aws_db_instance.db_instance_service2_c_c (expand)</title>
<path fill="none" stroke="#000000" d="M640.5751,-291.5394C539.7195,-281.4246 402.6876,-267.2435 272.3543,-252.14"/>
<polygon fill="#000000" stroke="#000000" points="272.5196,-248.6357 262.1824,-250.9577 271.7114,-255.5889 272.5196,-248.6357"/>
</g>
<!-- [root] provider[&quot;registry.terraform.io/hashicorp/aws&quot;] (close)&#45;&gt;[root] aws_db_instance.db_instance_service3_c_c_1_c (expand) -->
<g id="edge16" class="edge">
<title>[root] provider["registry.terraform.io/hashicorp/aws"] (close)-&gt;[root] aws_db_instance.db_instance_service3_c_c_1_c (expand)</title>
<path fill="none" stroke="#000000" d="M732.9957,-288.3868C701.6168,-278.3456 662.0855,-265.6956 629.046,-255.1229"/>
<polygon fill="#000000" stroke="#000000" points="630.0567,-251.7715 619.4657,-252.0572 627.9232,-258.4385 630.0567,-251.7715"/>
</g>
<!-- [root] provider[&quot;registry.terraform.io/hashicorp/aws&quot;] (close)&#45;&gt;[root] aws_elb.aws_elb_1 (expand) -->
<g id="edge17" class="edge">
<title>[root] provider["registry.terraform.io/hashicorp/aws"] (close)-&gt;[root] aws_elb.aws_elb_1 (expand)</title>
<path fill="none" stroke="#000000" d="M788.0369,-287.8314C788.0369,-280.131 788.0369,-270.9743 788.0369,-262.4166"/>
<polygon fill="#000000" stroke="#000000" points="791.537,-262.4132 788.0369,-252.4133 784.537,-262.4133 791.537,-262.4132"/>
</g>
<!-- [root] provider[&quot;registry.terraform.io/hashicorp/aws&quot;] (close)&#45;&gt;[root] aws_instance.f1_8 (expand) -->
<g id="edge18" class="edge">
<title>[root] provider["registry.terraform.io/hashicorp/aws"] (close)-&gt;[root] aws_instance.f1_8 (expand)</title>
<path fill="none" stroke="#000000" d="M654.9823,-290.8001C584.7261,-281.8677 496.9525,-269.2814 410.181,-252.1174"/>
<polygon fill="#000000" stroke="#000000" points="410.6463,-248.6412 400.1541,-250.1125 409.2737,-255.5053 410.6463,-248.6412"/>
</g>
<!-- [root] provider[&quot;registry.terraform.io/hashicorp/aws&quot;] (close)&#45;&gt;[root] aws_lambda_function.aws_lambda_function_7 (expand) -->
<g id="edge19" class="edge">
<title>[root] provider["registry.terraform.io/hashicorp/aws"] (close)-&gt;[root] aws_lambda_function.aws_lambda_function_7 (expand)</title>
<path fill="none" stroke="#000000" d="M842.0996,-288.3868C872.7883,-278.3887 911.416,-265.8041 943.7831,-255.2592"/>
<polygon fill="#000000" stroke="#000000" points="945.1874,-258.4828 953.6113,-252.0572 943.019,-251.8271 945.1874,-258.4828"/>
</g>
<!-- [root] provider[&quot;registry.terraform.io/hashicorp/aws&quot;] (close)&#45;&gt;[root] aws_s3_bucket.aws_s3_bucket_4 (expand) -->
<g id="edge20" class="edge">
<title>[root] provider["registry.terraform.io/hashicorp/aws"] (close)-&gt;[root] aws_s3_bucket.aws_s3_bucket_4 (expand)</title>
<path fill="none" stroke="#000000" d="M1028.0974,-301.547C1201.4997,-295.7667 1409.9754,-282.4894 1438.0369,-252 1486.2233,-199.6444 1389.2413,-142.8854 1323.5832,-112.4019"/>
<polygon fill="#000000" stroke="#000000" points="1324.6952,-109.0623 1314.1443,-108.0987 1321.7914,-115.4316 1324.6952,-109.0623"/>
</g>
<!-- [root] root -->
<g id="node14" class="node">
<title>[root] root</title>
<ellipse fill="none" stroke="#000000" cx="788.0369" cy="-378" rx="50.9823" ry="18"/>
<text text-anchor="middle" x="788.0369" y="-373.8" font-family="Times,serif" font-size="14.00" fill="#000000">[root] root</text>
</g>
<!-- [root] root&#45;&gt;[root] provider[&quot;registry.terraform.io/hashicorp/aws&quot;] (close) -->
<g id="edge21" class="edge">
<title>[root] root-&gt;[root] provider["registry.terraform.io/hashicorp/aws"] (close)</title>
<path fill="none" stroke="#000000" d="M788.0369,-359.8314C788.0369,-352.131 788.0369,-342.9743 788.0369,-334.4166"/>
<polygon fill="#000000" stroke="#000000" points="791.537,-334.4132 788.0369,-324.4133 784.537,-334.4133 791.537,-334.4132"/>
</g>
</g>
</svg>